<svg xmlns="http://www.w3.org/2000/svg" width="149.1" height="255.9" viewBox="0 0 149.1 255.9"><ellipse cx="48.8" cy="137.2" fill="#c3e2ed" rx="47.2" ry="47.3"/><path fill="none" stroke="#324530" stroke-miterlimit="10" stroke-width="2.74" d="M78.4 152.9S85.5 104.2 50.3 41"/><path fill="none" stroke="#324530" stroke-miterlimit="10" stroke-width="1.83" d="M69.6 53.8s-4.9 2.4-6.6 12.8c0 0-4-7-16.6-2.9m26.4 32.9s4.7-15.2 11-19.3m-8.2 31.5a25.9 25.9 0 0 0-25.1-12.1"/><path fill="#f1e8c8" stroke="#000" stroke-miterlimit="10" stroke-width=".96" d="M30.1 6h6c1 .1 1.2-1.1 1.2-1.1l3.5.5s.8-1.2 1.7-2.3 2.1.4 4-2.5c0 0 2.7.4 3.3 1.6s3.1-1.6 3-1.7 3.7-.9 1.6 8.4S37.6 21 37.6 21L30 13.1S27.5 6 30.1 6z"/><path fill="#f1e8c8" stroke="#000" stroke-miterlimit="10" stroke-width=".96" d="M25.4 29.1l-10.8-8.3s-.3-4.2.3-4.5 4 .5 4.3 1a27 27 0 0 1-1.8-2.2s1.3-1.3 2-1.1a14.2 14.2 0 0 1 2.1 1s.6-3.6 1.4-3.6l8.6-.6 2.7 9.5z"/><path fill="#f1e8c8" stroke="#000" stroke-miterlimit="10" stroke-width=".96" d="M21.4 43.9s-7.8 2.9-8 0a20.7 20.7 0 0 1 0-4.1s-1.2 1.7-1.5.9.4-4.5.6-4.5-.8-3.5-2.9-3.9c0 0-.6-3.2.7-3.9s.1-3.5-.8-3.3-.1-2.3 1-1.7.5-2.3.5-2.3l2.9-.7 7.6 5zm21.7-31.4a.9.9 0 0 1 0-1.5c.9-.8 3-.7 3-.7l3-.4 2.4-4s3 .3 3.5 1l1.7 2.2h4.1s.6 10.2-.9 11.4a11.1 11.1 0 0 0-2.8 3.3s.4 3.5.3 3.8l-2.2 2s-.2 2.1 3.9 1.2-4.3 12.1-4.3 12.1L52 44.7l-9.6-15z"/><path fill="#f1e8c8" stroke="#000" stroke-miterlimit="10" stroke-width=".96" d="M38 33.5L26.4 23.1s-2.4 1.8-3.9.6-.6-2-2.2-2.6-2 3.7-1.4 3.9 1.1 4.6-1.7 5-.8 6-.8 6a2.8 2.8 0 0 1-.7 2c-.8.8-.3 2.7 1.4 4.2s-1.1 3.9.1 4.1 1.6 1.7 5-.1-.6-2.7 4.4-1.4a4.8 4.8 0 0 0 3.8-.9c1.7-1.5 2.1 1.9 2.1 1.9s1.1 2.1 6.2 1.2c0 0 1.1-1.5 1.5-1.6s2.3.9 2.7.5l1.2-1.1h9.2z"/><path fill="#f1e8c8" stroke="#000" stroke-miterlimit="10" stroke-width=".96" d="M51.6 43.8s-33-14.4-24.8-23.9a8.7 8.7 0 0 1 4.5-1.3c2 .2.6-4.9 1.8-6.2s1.6-.2 3.9-2.5c0 0 2.9 1.1 2.9 2.2s3.2.4 3.2.4 1.9 2.8 2.8 3.2 2.1 5.1 2.4 6.2-.4 14.5.1 15.1 3.7 3.1 3.6 3.6-.4 3.2-.4 3.2z"/><path fill="none" stroke="#e8a139" stroke-miterlimit="10" stroke-width=".2" d="M51.1 42.8s-19-14.9-19.4-17.7m-1-4.8c.1 4.4 20.4 22.5 20.4 22.5s-13.4-14.1-13.9-16m13.9 17.5S27 39 25.3 36.7"/><path fill="none" stroke="#e8a139" stroke-miterlimit="10" stroke-width=".2" d="M22.9 32.8c2.1 3.9 28.5 11.6 28.5 11.6S33 37.5 31.7 35.9m4.9-12.6c1 3.5 14.5 19.5 14.5 19.5s-12.8-23.9-15.3-23"/><path fill="none" stroke="#e8a139" stroke-miterlimit="10" stroke-width=".2" d="M41.8 28.6c.9.9 9.3 14.2 9.3 14.2S38.3 16 37.3 16"/><path fill="none" stroke="#e8a139" stroke-miterlimit="10" stroke-width=".2" d="M42.8 21.3s4.4 11.5 4 12.5c.4-2.5-3.7-15.2-3.7-15.2"/><path fill="none" stroke="#e8a139" stroke-miterlimit="10" stroke-width=".2" d="M23.3 27.8c2.5 3.2 28.3 16 28.3 16s3-19.7-1.4-27.4"/><path fill="none" stroke="#e8a139" stroke-miterlimit="10" stroke-width=".2" d="M53.8 14.9c5.2 6.7-1.2 28.8-1.2 28.8s3.5-3.3 3.7-6.9m-1-2.2s.8 3.3-2.7 9.1"/><path fill="#f1e8c8" stroke="#000" stroke-miterlimit="10" stroke-width=".46" d="M81.9 45.3s.2 1.8.2 2.1.5.4.5.4V49l.9.5s-.1.7 1 1.3 0 .9-.4 1.2.6 1 .7 1 .4 1.2-3 .8-5-5.3-5-5.3l2.6-2.9s2.4-1.2 2.5-.3z"/><path fill="#f1e8c8" stroke="#000" stroke-miterlimit="10" stroke-width=".46" d="M73.4 44.6l2.6-4.1s1.5-.2 1.6 0a1.9 1.9 0 0 1-.2 1.5l.8-.7s.5.4.4.6a2.2 2.2 0 0 1-.3.8s1.4.1 1.4.3.5 3 .5 3l-3.4 1.3z"/><path fill="#f1e8c8" stroke="#000" stroke-miterlimit="10" stroke-width=".46" d="M67.8 43.8s-1.3-2.6-.3-2.8a4.2 4.2 0 0 1 1.5-.1s-.6-.4-.3-.5a2.9 2.9 0 0 1 1.6 0c0 .1 1.3-.4 1.3-1.2s1.2-.3 1.5.1 1.2-.1 1.1-.4.9-.1.7.3.8.1.8.1l.4 1-1.6 2.8zM80 50.1s.3-.4.5-.1a2.2 2.2 0 0 1 .4 1l.2 1 1.6.7s0 1.1-.3 1.3l-.7.6V56s-3.7.7-4.1.2a4.2 4.2 0 0 0-1.3-.8l-1.4.2-.8-.7s-.8 0-.3 1.4-4.6-1-4.6-1l-.7-.9 5.1-3.9z"/><path fill="#f1e8c8" stroke="#000" stroke-miterlimit="10" stroke-width=".46" d="M72.2 49.1l3.4-4.4s-.8-.8-.4-1.3.7-.3.9-.9-1.4-.5-1.5-.3-1.6.6-1.9-.4-2.2-.1-2.2-.1a1 1 0 0 1-.7-.1c-.3-.3-1 0-1.5.6s-1.5-.2-1.5.2-.6.6.2 1.7 1-.3.7 1.5a1.6 1.6 0 0 0 .5 1.3c.5.5-.7.8-.7.8s-.7.4-.2 2.2l.7.4c0 .2-.3.8-.2 1l.5.4.3 3.1z"/><path fill="#f1e8c8" stroke="#000" stroke-miterlimit="10" stroke-width=".46" d="M68.9 54.2s4.1-12 7.8-9.5a2.9 2.9 0 0 1 .7 1.5c0 .7 1.8 0 2.3.4s.1.5 1 1.3-.3 1-.7 1 0 1.2 0 1.2-1 .7-1.1 1l-2.1 1.1c-.4.2-5.3.5-5.5.7s-1 1.3-1.2 1.3z"/><path fill="none" stroke="#e8a139" stroke-miterlimit="10" stroke-width=".07" d="M68.7 54.4s4.3-7.8 5.3-8.2m1.8-.7c-1.7.4-7.1 8.9-7.1 8.9s4.4-5.8 5-6m-5 6.1s.4-8.9 1.1-9.7"/><path fill="none" stroke="#e8a139" stroke-miterlimit="10" stroke-width=".07" d="M71.1 43.7c-1.3 1-2.4 11-2.4 11s1.3-7.1 1.8-7.6"/><path fill="none" stroke="#e8a139" stroke-miterlimit="10" stroke-width=".07" d="M75 47.9c-1.2.6-6.3 6.5-6.3 6.5s8.1-6.2 7.6-7.1"/><path fill="none" stroke="#e8a139" stroke-miterlimit="10" stroke-width=".07" d="M73.4 50.1c-.3.4-4.7 4.3-4.7 4.3s9.2-6.3 9.1-6.8M76.2 50a44.2 44.2 0 0 1-4.4 2.3c1-.1 5.4-2.5 5.4-2.5"/><path fill="none" stroke="#e8a139" stroke-miterlimit="10" stroke-width=".08" d="M73 43.5c-1 1.1-4.3 10.9-4.3 10.9s7.8 0 10.5-2.1"/><path fill="none" stroke="#e8a139" stroke-miterlimit="10" stroke-width=".08" d="M80.5 53c-2.1 2.3-11.8 1.4-11.8 1.4s2.4 1.2 3.8 1m.7-.5a9.2 9.2 0 0 1-4.5-.5"/><path fill="#f1e8c8" stroke="#000" stroke-miterlimit="10" stroke-width=".48" d="M32.1 75.5l2.5 1c.4.1.3.6.3.6l1.5.3a13.2 13.2 0 0 0 .3 1.3s.9.1 1.2 1.6 1.2.2 1.6-.2 1.1 1.1 1 1.1 1.4.9 2-3.2-4.8-7.4-4.8-7.4l-4.4 2s-2.2 2.5-1.2 2.9z"/><path fill="#f1e8c8" stroke="#000" stroke-miterlimit="10" stroke-width=".48" d="M34 65.4l-5.8 1.7s-.8 1.7-.6 1.9 1.8.4 1.9.3l-1 .6s.3.7.6.8h1s-.3 1.5 0 1.6l3.4 1.6 2.6-3.5z"/><path fill="#f1e8c8" stroke="#000" stroke-miterlimit="10" stroke-width=".48" d="M34.8 58.8s-2.7-2.4-3.2-1.3a8.1 8.1 0 0 0-.7 1.7s-.2-.8-.5-.6a4.1 4.1 0 0 0-.5 1.9c.1.1-.9 1.4-1.8 1.2s-.8 1.2-.4 1.7-.5 1.4-.8 1.2-.4 1 .1.9-.2 1-.2 1l1.1.7 3.9-.9zm3.7 16.1s-.5.2-.2.6 1.1.7 1.1.7l1.1.6.4 2s1.2.4 1.6.1l1-.6 1.7.6s1.9-4 1.5-4.7a4.3 4.3 0 0 1-.6-1.8l.7-1.5a11.7 11.7 0 0 0-.5-1.1s.2-.9 1.8.1.2-5.7.2-5.7l-.9-1.1-6.4 4.7z"/><path fill="#f1e8c8" stroke="#000" stroke-miterlimit="10" stroke-width=".48" d="M39.9 65.5L33.4 68s-.7-1.1-1.5-.8-.5.7-1.3.7-.2-1.8.1-1.8 1.2-1.7.1-2.3.7-2.6.7-2.6a1.2 1.2 0 0 0 0-.9c-.2-.4.3-1.1 1.3-1.5s.2-1.7.7-1.6.9-.5 2 .7-.7 1.1 1.6 1.3a2 2 0 0 1 1.4 1c.4.8 1.2-.5 1.2-.5s.7-.7 2.7.4a4.7 4.7 0 0 0 .3.9c.2.2 1.1 0 1.2.2l.3.7 3.8 1.4z"/><path fill="#f1e8c8" stroke="#000" stroke-miterlimit="10" stroke-width=".48" d="M47.1 63.4s-15.8.8-14 6a3.2 3.2 0 0 0 1.6 1.2c.9.2-.6 2.1-.3 2.8s.6.3 1.2 1.6 1.4 0 1.5-.5 1.4.4 1.4.4a6.5 6.5 0 0 1 1.7-.9l2-2.2c.3-.3 2.2-6 2.5-6.1a22 22 0 0 0 2.1-.9c0-.2.3-1.4.3-1.4z"/><path fill="none" stroke="#e8a139" stroke-miterlimit="10" stroke-width=".09" d="M47.5 63.2s-10.9 2.5-11.7 3.5m-1.4 1.8c1-1.8 13.1-5.3 13.1-5.3s-8.5 3.2-9 3.9m9-3.9s-10.9-2.4-12-1.8"/><path fill="none" stroke="#e8a139" stroke-miterlimit="10" stroke-width=".09" d="M33.6 62.5c1.7-1.2 14.2.8 14.2.8s-9-.7-9.9-.3"/><path fill="none" stroke="#e8a139" stroke-miterlimit="10" stroke-width=".09" d="M37.5 68.4c1.1-1.2 10-5.2 10-5.2s-10.3 7.4-11.1 6.5"/><path fill="none" stroke="#e8a139" stroke-miterlimit="10" stroke-width=".09" d="M40.7 67.3c.5-.2 6.8-4.1 6.8-4.1s-10.7 8.6-11.3 8.4m3.4-1.1s4.2-3.9 4.3-4.4c-.4 1.1-4.8 5.5-4.8 5.5"/><path fill="none" stroke="#e8a139" stroke-miterlimit="10" stroke-width=".09" d="M32.8 64.7c1.7-.9 14.7-1.5 14.7-1.5s-2.6 9.1-6 11.4"/><path fill="none" stroke="#e8a139" stroke-miterlimit="10" stroke-width=".09" d="M41.9 76.4c3.5-1.7 5.6-13.2 5.6-13.2s.6 3.2 0 4.7m-.9.7a11.9 11.9 0 0 0 .9-5.4"/><path fill="#f1e8c8" stroke="#000" stroke-miterlimit="10" stroke-width=".39" d="M101.3 70.8s0 2.6-.1 3.1.6.7.6.7l-.4 1.8 1.3.9s-.3 1.1 1.2 2.2-.3 1.4-.9 1.6.7 1.7.8 1.6.4 2-4.7.7-6.2-8.9-6.2-8.9l4.5-3.8s4-1.2 3.9.1z"/><path fill="#f1e8c8" stroke="#000" stroke-miterlimit="10" stroke-width=".39" d="M88.8 68l4.8-5.5s2.3-.1 2.5.2a3.8 3.8 0 0 1-.7 2.2l1.2-.9s.7.7.6 1.1a4.8 4.8 0 0 1-.6 1.1s1.9.4 1.9.7.1 4.5.1 4.5l-5.2 1.3z"/><path fill="#f1e8c8" stroke="#000" stroke-miterlimit="10" stroke-width=".39" d="M80.8 65.6s-1.4-4.1.2-4.2h2.2s-.9-.6-.5-.8a5.7 5.7 0 0 1 2.5.4c0 .1 2-.3 2.2-1.5s1.8-.2 2.2.5 1.8.1 1.7-.4 1.3 0 1 .6 1.2.3 1.2.3l.3 1.5-2.9 4zm16.6 11.9s.5-.5.9 0a2.8 2.8 0 0 1 .3 1.6v1.5l2.2 1.4s-.3 1.6-.7 1.8l-1.3.8v2.1s-5.6.2-6.2-.6a5.4 5.4 0 0 0-1.8-1.5 14.6 14.6 0 0 1-2.1 0 10 10 0 0 1-1-1.1s-1.2-.2-.8 2-6.4-2.5-6.4-2.5l-.9-1.5 8.5-4.7z"/><path fill="#f1e8c8" stroke="#000" stroke-miterlimit="10" stroke-width=".39" d="M86 74.4l6.1-5.8s-1-1.3-.3-2.1 1.1-.2 1.5-1.1-2-1.1-2.1-.8-2.6.5-2.7-.9-3.3-.6-3.3-.6a1.8 1.8 0 0 1-1.1-.4c-.4-.4-1.4-.2-2.3.7s-2.1-.7-2.2 0-1 .7-.1 2.5 1.5-.2.6 2.4a2.3 2.3 0 0 0 .5 2c.7.9-1.1 1-1.1 1s-1.2.6-.8 3.2a3.8 3.8 0 0 1 .8.9c.1.2-.5 1.1-.3 1.3a2.5 2.5 0 0 0 .5.7l-.2 4.8z"/><path fill="#f1e8c8" stroke="#000" stroke-miterlimit="10" stroke-width=".39" d="M80.1 81.3s8.7-16.9 13.7-12.5a4.1 4.1 0 0 1 .6 2.4c-.2 1.1 2.6.4 3.3 1.1s.1.8 1.3 2-.7 1.5-1.2 1.5-.4 1.7-.4 1.7a8 8 0 0 0-1.8 1.4L92.2 80c-.6.2-8-.4-8.3-.2a11.2 11.2 0 0 1-2.1 1.8z"/><path fill="none" stroke="#e8a139" stroke-miterlimit="10" stroke-width=".11" d="M79.7 81.6s8.1-10.7 9.7-11m2.8-.7c-2.6.2-12.5 11.7-12.5 11.7s7.8-7.7 8.9-8m-8.9 8s2.5-13.1 3.8-14"/><path fill="none" stroke="#e8a139" stroke-miterlimit="10" stroke-width=".11" d="M85.6 66.1C83.4 67.4 79.7 82 79.7 82s3.5-10.2 4.4-11"/><path fill="none" stroke="#e8a139" stroke-miterlimit="10" stroke-width=".11" d="M90.6 73.2c-2 .6-10.9 8.4-10.9 8.4s13.4-7.6 12.9-9"/><path fill="none" stroke="#e8a139" stroke-miterlimit="10" stroke-width=".11" d="M87.7 76.2c-.5.5-8 5.4-8 5.4s15-7.5 15.1-8.2m-2.9 3.1s-6.5 2.7-7.1 2.6c1.5.1 8.6-2.5 8.6-2.5"/><path fill="none" stroke="#e8a139" stroke-miterlimit="10" stroke-width=".11" d="M88.5 66.2c-1.7 1.5-8.8 15.4-8.8 15.4s11.7 1.6 16-1"/><path fill="none" stroke="#e8a139" stroke-miterlimit="10" stroke-width=".11" d="M97.6 82c-3.7 3-17.9-.4-17.9-.4s3.4 2.3 5.4 2.3m1.3-.6a14.9 14.9 0 0 1-6.7-1.7"/><path fill="#f1e8c8" stroke="#000" stroke-miterlimit="10" stroke-width=".46" d="M27.4 112l3.3 1.7c.6.2.3 1 .3 1l2.2.7a9.4 9.4 0 0 0 .2 1.8s1.3.4 1.5 2.6c0 0 1.6.5 2.3 0s1.3 1.7 1.2 1.8 1.8 1.5 3.4-4.4-5.7-11.7-5.7-11.7l-6.6 2.4s-3.5 3.3-2.1 4.1z"/><path fill="#f1e8c8" stroke="#000" stroke-miterlimit="10" stroke-width=".46" d="M31.8 97.5l-8.5 1.6s-1.5 2.3-1.2 2.7a5.2 5.2 0 0 0 2.6.6l-1.6.8s.3 1.1.8 1.2h1.5s-.8 2.2-.4 2.4l4.6 2.8L34 105z"/><path fill="#f1e8c8" stroke="#000" stroke-miterlimit="10" stroke-width=".46" d="M34 87.8s-3.5-3.8-4.5-2.3a19.8 19.8 0 0 0-1.2 2.4s-.1-1.3-.6-1a6 6 0 0 0-.9 2.8c.1.1-1.6 1.8-2.9 1.4s-1.3 1.7-.7 2.5-1 1.9-1.5 1.6-.7 1.3.1 1.3-.4 1.4-.4 1.4l1.4 1.3 5.7-.8zm2.6 24.2s-.7.2-.5.8 1.5 1.3 1.5 1.3l1.5 1.1.2 2.9s1.8.7 2.2.5l1.6-.9 2.3 1.2s3.4-5.6 2.9-6.7a7.8 7.8 0 0 1-.5-2.7 19.6 19.6 0 0 0 1.2-2.1 6.7 6.7 0 0 0-.6-1.7s.6-1.3 2.6.4 1.2-8.2 1.2-8.2l-1-1.8-9.9 5.9z"/><path fill="#f1e8c8" stroke="#000" stroke-miterlimit="10" stroke-width=".46" d="M40.1 98.5l-9.6 2.7s-.8-1.8-2-1.5-.9 1-2 .9 0-2.7.4-2.7 2-2.3.6-3.3 1.3-3.7 1.3-3.7a1.9 1.9 0 0 0 .2-1.3c-.2-.7.7-1.6 2.1-2s.6-2.6 1.3-2.3 1.4-.6 2.7 1.4-1.1 1.4 2.1 2.1a2.7 2.7 0 0 1 1.7 1.6c.6 1.3 1.8-.5 1.8-.5s1.2-.9 3.8 1.1c0 0 .2 1.1.3 1.4s1.6.1 1.7.4l.3 1 5.1 2.6z"/><path fill="#f1e8c8" stroke="#000" stroke-miterlimit="10" stroke-width=".46" d="M50.7 96.5s-22.6-1.2-20.9 6.6a4.8 4.8 0 0 0 2.1 2c1.2.5-1.2 3-.9 4.1s.8.6 1.4 2.5c0 0 2 .2 2.3-.4s1.9.7 1.9.7a10.1 10.1 0 0 1 2.5-1.1l3.2-2.8c.5-.5 4.2-8.4 4.6-8.6s3-.8 3.1-1.1z"/><path fill="none" stroke="#e8a139" stroke-miterlimit="10" stroke-width=".13" d="M51.2 96.3s-15.8 1.9-17.1 3.3m-2.3 2.4c1.6-2.4 19.4-5.7 19.4-5.7s-12.5 3.3-13.4 4.3m13.5-4.3S36.2 91 34.4 91.8"/><path fill="none" stroke="#e8a139" stroke-miterlimit="10" stroke-width=".13" d="M31.7 93.1c2.6-1.5 19.9 3.4 19.9 3.4S38.9 94 37.7 94.4"/><path fill="none" stroke="#e8a139" stroke-miterlimit="10" stroke-width=".13" d="M36.1 102.4c1.9-1.7 15.1-6.1 15.1-6.1s-15.7 9.2-16.8 7.8"/><path fill="none" stroke="#e8a139" stroke-miterlimit="10" stroke-width=".13" d="M40.9 101.2c.8-.2 10.3-4.9 10.3-4.9s-16.5 10.9-17.3 10.5"/><path fill="none" stroke="#e8a139" stroke-miterlimit="10" stroke-width=".13" d="M38.8 105.7s6.7-5.1 6.8-5.8c-.7 1.6-7.6 7.4-7.6 7.4"/><path fill="none" stroke="#e8a139" stroke-miterlimit="10" stroke-width=".14" d="M30.1 96.2c2.6-1 21.1.1 21.1.1s-5.1 12.9-10.4 15.8"/><path fill="none" stroke="#e8a139" stroke-miterlimit="10" stroke-width=".14" d="M41.1 114.8c5.3-2 10.1-18.5 10.1-18.5s.5 4.8-.7 6.8m-1.4 1a17.2 17.2 0 0 0 2.1-7.8"/><path fill="#e8a139" d="M52.1 142.5v.2h.2a.4.4 0 0 1-.2-.2zm-2.1-.8zm2.2 1.1l1.9.4c0 .1-.1.3-.1.4s.7.1 1.1.2h.7c.2 0 .3.2.3 0-1.9-.4-2.2-2.3-3.9-1zm-1.1-1.5a1.9 1.9 0 0 0-.2.8l1.2.4a3.8 3.8 0 0 0-1-1.2zm61.4-36.9c-.1-.1-.2-.1.1-.2v.2l.2.2.3-1.2a5.1 5.1 0 0 1 .2-1.3l-.4-.5c-.5 2-1.4 3.8-1.5 5.8a4.7 4.7 0 0 0 .6-1.5zm-.7-3.2v-.2c-.2.1-.1.1 0 .2zm-26.6 21.5a13.2 13.2 0 0 0-3.5 1.5 25.9 25.9 0 0 0 6.6-1.9zM78 127a2.9 2.9 0 0 0 1.6-.2 3.3 3.3 0 0 0 1.3-.9l-1.3.4-1.4.4zm1.2-1.3a3.3 3.3 0 0 0 1.8-.8.3.3 0 0 1 .1-.2l.2-.2c0-.1.1-.1.1-.2H81a9.4 9.4 0 0 0-1.8 1.4zm18.4-21c.1-.8.3-1.1.3-1.3l-.3-.9h-.1l-.3.8-.4.8a3.1 3.1 0 0 0-.1 1zm.3-1.3c.9 2.1.4-.6 0 0zm2.2 11.9h-.1l-.3.3zm-11.3-1.6l1.9-.8a33.4 33.4 0 0 0-3.8 1.6c.2 0 .4.2.6.1a2.1 2.1 0 0 1 1.3-.9z"/><path fill="#e8a139" d="M104.3 110.6a49.1 49.1 0 0 1-4.3 4.8c-3.8 1.9-7.5 3.3-10.9 5.4-1.9 1.2-5 1.7-7.8 2.5h-.4l-.7.4-.7.5-1.2 1.3h.9a4.7 4.7 0 0 0-1 1 62.6 62.6 0 0 0-11.1 4.4c-.5.2-.6.9-1 1.2l-1.3.9c0 .1 0 .1.1.1a13.6 13.6 0 0 0-3.6 5 4.1 4.1 0 0 1-.7 1.1 7.5 7.5 0 0 0-.7 1.2c-.2.3-.8-.1-1.1.1a5.8 5.8 0 0 0-2.9 1.8h-.5c0 .2 0 .3-.1.4a11.2 11.2 0 0 1-1.9-1.6c-.5-.5-1-.7-1.9 0v-.3a4.6 4.6 0 0 0-.8-1.3 4.1 4.1 0 0 0-.3.8l-.7-.2-.2-.2a.3.3 0 0 0 .1-.2l-.3-.2c-.5-1.1-.3-2.5-1.1-2.6s-.4.8-.4 1.6h-.2c.1-1-1.2-.5-1.2-1.1s.5-1.6.8-2.3a83.7 83.7 0 0 1 4.8-8.2l.3-.4a12.9 12.9 0 0 1 3.4-3.2v.4a16.6 16.6 0 0 0 3-2.2l1.8-1.7a9.7 9.7 0 0 1 1.9-1.5l2-1.3 2.3-1.1 2.4-1 2.4-.8a18.4 18.4 0 0 0 2.5-.9l2.5-.7-2 .8-2.1.8-1.9.4a6.5 6.5 0 0 0 1.9-.4l1.9-.4 1.8-.3a5.8 5.8 0 0 0 3.1-1.8c.3.1.3.3.6.3h1.5a3.6 3.6 0 0 0 2.3-.6c0-.2.5-.2.3-.6a10.2 10.2 0 0 0 3-.8 2.7 2.7 0 0 0 1-1.1 23.2 23.2 0 0 0 7.5-5.5 7.5 7.5 0 0 1 1.4-1.2 8 8 0 0 1-1.6 2.8 4.2 4.2 0 0 0-2.6 2l-.5.7a13.7 13.7 0 0 0 3.1-2.7 5.3 5.3 0 0 0 1.7-.8l-.9 1.3a4.9 4.9 0 0 0-2.5 1.7l-.2.4-.5.7a19.3 19.3 0 0 0 2.1-1.7 11.4 11.4 0 0 0 1.1-1.1l.8-.3v.2c-.1.2.2 2.5.8 2.7a8.3 8.3 0 0 0 2.6-2.3 5.8 5.8 0 0 0 .8-1c.1-.2.3-.4.3-.3s.1.3.1.7a3.4 3.4 0 0 1-.6 1.2c-.4.9-1.1 1.6-1 1.7l.7-.3a2.4 2.4 0 0 0-.2.8c-.4.4-1 .6-1.1 1.1s-1.8 1.8-2.8 3-1.4 1.9-2.3 2.9-.5.3-.2.6-2.2.6-2.4 1.7h-.1l-.3.2c-1.8.2-2.9 1.4-4.5 2.3l-1.8.3a3.3 3.3 0 0 0 1.4-.1l.4-.2a18.9 18.9 0 0 0 4.1-1.8l.4-.5h.3v-.2a35.6 35.6 0 0 0 3.5-2.2c1.7-1.3 3.9-1.8 5.8-2.8l-2.4 2.3a17.6 17.6 0 0 0 2.8-2.6l.5-.3.9-.6-.9.4a10.4 10.4 0 0 0 1.2-1.7 40.6 40.6 0 0 0 5.7-8.9l.5.4c-.6 1.7-1.4 3.1-1.5 4.9a3.8 3.8 0 0 0 .6-1.3 6.7 6.7 0 0 1 .6-1.2l.2.2c.2-.7.3-1.4.5-2.1l1 1.2a3.6 3.6 0 0 1-.3 1.7 24.3 24.3 0 0 1-4.3 6.3 29.2 29.2 0 0 1-5.7 3.7 20.6 20.6 0 0 0 4.2-4.6zm-50.9 27.7v-.5h-.2zm2-3.1a3.7 3.7 0 0 0-1 1.6l-.6 1.9h.2l.3-.8a3.6 3.6 0 0 0 .4-.9l.3-.9zm5.4-.7zm14.8-13.2c-1.2 1.3-2.9 1.6-4.5 2.4s-.8 1-1.4 1.2l-1.6 1.3.6.2c-1.2.2-1.3 1.6-2.4 1.7a.5.5 0 0 1-.1.6c-.6.4-1.4.6-1.7 1.2s-1.2.8-1.4 1.5-.1.7-.2 1l-.7.8h.2l.5-.6.8-1.3.9-1 1.3-1.1 1.3-1.1 1.3-1.2 1.4-1 1.2-1.2a6.3 6.3 0 0 1 2.1-1.2A3.5 3.5 0 0 0 75 122c.1-.2.5-.3.6-.7zm.9-7.9a27.9 27.9 0 0 1-6.3 2.2 8.8 8.8 0 0 0-3.3 1.9c-1 .9-1.6 1.9-.8 2.8.2-2.1 3.3-3.4 6.1-3.9s5.3-1 4.3-3zm14.2-5a6.4 6.4 0 0 1-1.8 1zm-5.9 8.4c2.3-1.5 4.7-2.1 6.8-3.3s3.6-.8 4.5-2.5l-.2-.5v.2h-1.7a1.7 1.7 0 0 0-1 .3l-.4.4a54.6 54.6 0 0 0-5.9 3 28.8 28.8 0 0 1-3.4 2.3c.4.1.9.3 1.3.1z"/><path fill="#e8a139" d="M101.2 112.3a14.6 14.6 0 0 0 1.6-1.9 9.5 9.5 0 0 0 1-1.7c.7-1.3 1.5-2.4 2.3-3.7a11.8 11.8 0 0 0 1.7-4 4.7 4.7 0 0 0-1.5-.6c-.8 1.2-1.3 2.5-2 3.7a9.2 9.2 0 0 1-2.8 3.1c-.2 1.7-2.2 2.6-3.3 4.1s-2.7 2.8-4.2 4.2c2.6-.7 4.8-2.1 7.2-3.2zm-20.3 13.6h.4l1.5-.2a26.2 26.2 0 0 0 6.5-2.2 38.1 38.1 0 0 1-4.7.7l-1.7.5-.9.4-.4.2h-.3l-.2.2c0 .1 0 .2-.1.2zm10-3.4l-1.6.8a32.8 32.8 0 0 0 6.7-2.2 28.8 28.8 0 0 0 9.2-7.1l.9-1a39.5 39.5 0 0 1-8.9 5 84.8 84.8 0 0 0-8.6 4.1l-.3.2a37.2 37.2 0 0 0 8-2.5zm9.8-9.6l.4-.3c.2-.1.3-.3.5-.5l-.4.2zm-6.5-2.1l-1.4.7a12.8 12.8 0 0 1-2.1 1.4 7.7 7.7 0 0 0 3.5-2.1zm-5.3-3l-.6.2-.2.3h.4zm-9.8 3.9l1-.3h1.1a32.1 32.1 0 0 0 6.6-2.4l.3-.5a11.1 11.1 0 0 0-4.8 1.7c-.3.2-.8.8-1.1.8h-2.1l-1.1.3-.8.3-1.8.8 2.7-.9z"/><path fill="#4f150e" d="M21.3 150.6l104.3-13.4c9 76.6-95.6 88.4-104.3 13.4z"/><path fill="#e8a139" d="M44.2 167.4l104.9 8.2c-6.9 76.9-111.6 66.9-104.9-8.2z"/><path fill="#324530" d="M21.2 203.8l104.7-10.3c6.7 76.8-98.2 85.4-104.7 10.3z"/></svg>