<svg height="32" viewBox="0 0 32 32" width="32" xmlns="http://www.w3.org/2000/svg"><path d="m-9-9h50v50h-50z" fill="#121f26"/><g fill="#f2e9c8"><path d="m8.6 21.3-3.9-10.4h2.8l2.7 8 2.6-8h2.5l-3.8 10.4z"/><path d="m19.9 21.5a5.3 5.3 0 0 1 -1.9-.4 4.4 4.4 0 0 1 -1.5-1.2 4.8 4.8 0 0 1 -1-1.7 6.4 6.4 0 0 1 -.3-2 6.6 6.6 0 0 1 .3-2.1 7.7 7.7 0 0 1 1-1.8 4.2 4.2 0 0 1 1.6-1.1 4.1 4.1 0 0 1 1.9-.5 4 4 0 0 1 2.2.6 4 4 0 0 1 1.5 1.4v-1.8h2.3v9.9a4.7 4.7 0 0 1 -.7 2.7 5.1 5.1 0 0 1 -2.1 1.7 7.3 7.3 0 0 1 -3 .5 6.5 6.5 0 0 1 -2.9-.5 6.2 6.2 0 0 1 -2-1.6l1.5-1.5a4.4 4.4 0 0 0 1.5 1.2 4.1 4.1 0 0 0 1.9.4 4.1 4.1 0 0 0 1.6-.3 3.1 3.1 0 0 0 1.1-.9 2.5 2.5 0 0 0 .4-1.6v-1.3a3.2 3.2 0 0 1 -1.4 1.4 4.9 4.9 0 0 1 -2 .5zm.9-2.2h.8l.7-.4a1 1 0 0 0 .6-.5l.4-.7v-2.6a2.4 2.4 0 0 0 -.6-1.1 2.3 2.3 0 0 0 -1-.7 2.2 2.2 0 0 0 -2.2 0l-.9.7a3.7 3.7 0 0 0 -.5 1.1 2.2 2.2 0 0 0 -.2 1.2 2.5 2.5 0 0 0 .2 1.2l.6 1 .9.6a2.5 2.5 0 0 0 1.2.2z"/></g></svg>