<svg height="256" viewBox="0 0 256 256" width="256" xmlns="http://www.w3.org/2000/svg"><path d="m-9-9h274v274h-274z" fill="#121f26"/><g fill="#f2e9c8"><path d="m20.7 235.3v-21.3h7a10.9 10.9 0 0 1 5.7 1.4 9 9 0 0 1 3.3 3.9 11.7 11.7 0 0 1 1.1 5.3 12.6 12.6 0 0 1 -1.2 5.7 8.9 8.9 0 0 1 -3.5 3.7 10.3 10.3 0 0 1 -5.4 1.3zm15.6-10.7a10.6 10.6 0 0 0 -1-4.8 7 7 0 0 0 -2.9-3.2 8.6 8.6 0 0 0 -4.7-1.2h-5.5v18.5h5.5a8.4 8.4 0 0 0 4.7-1.2 7.4 7.4 0 0 0 2.9-3.4 10.2 10.2 0 0 0 1-4.7z"/><path d="m70.6 233.9v1.4h-14.2v-21.3h14v1.4h-12.4v8.3h10.8v1.4h-10.8v8.8z"/><path d="m101.3 217.5-1.1-1-1.3-.7-1.6-.4-1.8-.2q-3.1 0-4.5 1.2a3.9 3.9 0 0 0 -1.5 3.2 2.8 2.8 0 0 0 .7 2.1 3.7 3.7 0 0 0 2 1.3l3.6.9a31.9 31.9 0 0 1 4 1.2 6.9 6.9 0 0 1 2.6 1.7 5.5 5.5 0 0 1 .3 5.5 4.1 4.1 0 0 1 -1.5 1.7 8.8 8.8 0 0 1 -2.4 1.1 15.5 15.5 0 0 1 -3.1.3 15.8 15.8 0 0 1 -3.2-.3 13.6 13.6 0 0 1 -2.8-1.1 10.1 10.1 0 0 1 -2.5-1.7l.8-1.3 1.5 1.3 1.8 1 2.1.6 2.3.2a8.9 8.9 0 0 0 4.4-1 3.7 3.7 0 0 0 1.6-3.1 3.6 3.6 0 0 0 -.8-2.3 5.2 5.2 0 0 0 -2.2-1.4 21.4 21.4 0 0 0 -3.7-1l-3.9-1.1a5.9 5.9 0 0 1 -2.3-1.6 4.1 4.1 0 0 1 -.8-2.8 5.3 5.3 0 0 1 .9-3.2 5.8 5.8 0 0 1 2.7-2.1 11.3 11.3 0 0 1 3.9-.7 10.9 10.9 0 0 1 2.6.3l2.2.8 1.8 1.4z"/><path d="m121.5 235.3v-21.3h1.5v21.3z"/><path d="m151.5 235.4a8.9 8.9 0 0 1 -7.1-3.4 12 12 0 0 1 -2.1-3.4 10.4 10.4 0 0 1 0-8 9.4 9.4 0 0 1 2-3.5 10.3 10.3 0 0 1 3.1-2.4 8.7 8.7 0 0 1 4-.9 9.6 9.6 0 0 1 5.1 1.3 8.9 8.9 0 0 1 3 3.4l-1.3.7a6.3 6.3 0 0 0 -2.8-3 9.1 9.1 0 0 0 -4.1-.9 7.7 7.7 0 0 0 -3.4.7 9.2 9.2 0 0 0 -2.6 2.2 11.1 11.1 0 0 0 -1.7 3 13.3 13.3 0 0 0 -.5 3.4 10.5 10.5 0 0 0 .6 3.6 11.7 11.7 0 0 0 1.9 3 7.9 7.9 0 0 0 2.7 2.1 7.2 7.2 0 0 0 3.3.7 7.6 7.6 0 0 0 3.9-1 11 11 0 0 0 3.5-3.1v1.7a9.3 9.3 0 0 1 -7.5 3.8zm7.2-9.2h-4.8v-1.3h6.1v10.4h-1.3z"/><path d="m180.5 216.8v18.5h-1.6v-21.3h1.3l14.8 18.7v-18.7h1.6v21.3h-1.5z"/><path d="m228.9 217.5-1.1-1-1.4-.7-1.5-.4-1.8-.2a7.2 7.2 0 0 0 -4.6 1.2 4.2 4.2 0 0 0 -1.4 3.2 3.3 3.3 0 0 0 .6 2.1 4 4 0 0 0 2.1 1.3l3.5.9a24.2 24.2 0 0 1 4 1.2 6.2 6.2 0 0 1 2.6 1.7 4.9 4.9 0 0 1 .9 3 6.2 6.2 0 0 1 -.5 2.5 4.4 4.4 0 0 1 -1.6 1.7 8.8 8.8 0 0 1 -2.4 1.1 14.8 14.8 0 0 1 -3.1.3 15.5 15.5 0 0 1 -3.1-.3 14.5 14.5 0 0 1 -2.9-1.1 9.6 9.6 0 0 1 -2.4-1.7l.8-1.3a6.4 6.4 0 0 0 1.5 1.3 7.7 7.7 0 0 0 1.8 1l2.1.6 2.3.2a8.5 8.5 0 0 0 4.3-1 3.9 3.9 0 0 0 .9-5.4 5.2 5.2 0 0 0 -2.2-1.4 22.8 22.8 0 0 0 -3.8-1 37.2 37.2 0 0 1 -3.8-1.1 6.3 6.3 0 0 1 -2.4-1.6 4.7 4.7 0 0 1 -.8-2.8 4.7 4.7 0 0 1 1-3.2 6.1 6.1 0 0 1 2.6-2.1 12.4 12.4 0 0 1 4-.7 10.1 10.1 0 0 1 2.5.3l2.2.8a13.3 13.3 0 0 1 1.9 1.4z"/><path d="m76.3 153.7-27-72.7h19.3l18.8 55.8 18.5-55.8h17.8l-27.1 72.7z"/><path d="m155.3 155.1a29.9 29.9 0 0 1 -13.4-3 31.2 31.2 0 0 1 -10.4-8 37.5 37.5 0 0 1 -6.7-11.9 42.1 42.1 0 0 1 -2.4-14.3 44.2 44.2 0 0 1 2.4-14.8 39.7 39.7 0 0 1 7-12.2 32.7 32.7 0 0 1 10.8-8.1 33.1 33.1 0 0 1 13.8-2.9 29.3 29.3 0 0 1 15 3.8 31.3 31.3 0 0 1 10.6 10.2v-12.9h16.4v69.4a32.3 32.3 0 0 1 -5.3 18.6 34.8 34.8 0 0 1 -14.4 11.8 51.4 51.4 0 0 1 -21 4.1c-8 0-14.7-1.3-20.2-4a40.3 40.3 0 0 1 -14.1-11.2l10.2-10a27.6 27.6 0 0 0 10.6 8.1 31 31 0 0 0 13.5 3 28.2 28.2 0 0 0 10.9-2.1 16.7 16.7 0 0 0 8-6.3 20 20 0 0 0 2.9-11.2v-9.3a23.9 23.9 0 0 1 -10.1 9.8 31.8 31.8 0 0 1 -14.1 3.4zm6.3-15a16.3 16.3 0 0 0 5.9-1 19.5 19.5 0 0 0 5.2-2.6 31.6 31.6 0 0 0 4.2-4 15.5 15.5 0 0 0 2.6-4.9v-17.4a21.6 21.6 0 0 0 -4.5-7.6 23.4 23.4 0 0 0 -6.8-5 18.4 18.4 0 0 0 -7.7-1.7 17.2 17.2 0 0 0 -7.8 1.8 17.6 17.6 0 0 0 -6.1 5.1 22.2 22.2 0 0 0 -3.9 7.3 26.4 26.4 0 0 0 -1.4 8.4 21.3 21.3 0 0 0 1.6 8.4 26.4 26.4 0 0 0 4.3 7 19.8 19.8 0 0 0 14.4 6.2z"/></g></svg>