<svg height="64" viewBox="0 0 64 64" width="64" xmlns="http://www.w3.org/2000/svg"><path d="m-9-9h82v82h-82z" fill="#121f26"/><g fill="#f2e9c8"><path d="m3.9 58.4v-5.7h1.9a2.4 2.4 0 0 1 1.5.4 1.9 1.9 0 0 1 1 1 3.2 3.2 0 0 1 .3 1.4 2.9 2.9 0 0 1 -.4 1.6 2 2 0 0 1 -.9.9 2.4 2.4 0 0 1 -1.5.4zm3.9-2.9a2 2 0 0 0 -.2-1.1 2.7 2.7 0 0 0 -.7-.8 1.8 1.8 0 0 0 -1.1-.2h-1.2v4.4h1.2a1.8 1.8 0 0 0 1.1-.3 1.8 1.8 0 0 0 .7-.8 2.3 2.3 0 0 0 .2-1.2z"/><path d="m17.3 57.8v.6h-3.9v-5.7h3.8v.7h-3.1v1.8h2.7v.6h-2.7v2z"/><path d="m25.4 53.9c0-.1-.1-.1-.2-.2l-.4-.2h-.9a1.5 1.5 0 0 0 -1 .3.7.7 0 0 0 -.3.6.8.8 0 0 0 .2.5l.5.3.8.2 1 .3.7.5c.2.2.2.5.2.9a1.7 1.7 0 0 1 -.1.7l-.5.5-.6.2h-1.7l-.8-.2-.6-.5.3-.8.3.3.5.2.6.2h.6l.9-.2a.8.8 0 0 0 .4-.7.8.8 0 0 0 -.2-.5l-.6-.3-.9-.3-.9-.3a.9.9 0 0 1 -.6-.4 1 1 0 0 1 -.2-.7 3 3 0 0 1 .2-1l.8-.5a1.6 1.6 0 0 1 1-.2h.7l.6.2.6.3z"/><path d="m30.8 58.4v-5.7h.7v5.7z"/><path d="m39 58.4a1.6 1.6 0 0 1 -1-.2l-.9-.7a1.9 1.9 0 0 1 -.5-.9 2 2 0 0 1 -.2-1.1 2.3 2.3 0 0 1 .2-1.1 4.1 4.1 0 0 1 .5-.9l.9-.6 1-.2a2.9 2.9 0 0 1 1.4.3 2.4 2.4 0 0 1 .8.9l-.6.4a1.4 1.4 0 0 0 -.6-.7 1.9 1.9 0 0 0 -1-.3l-.8.2-.6.5a2.5 2.5 0 0 0 -.4.7 2.8 2.8 0 0 0 -.1.9 2.2 2.2 0 0 0 .1.8 1.8 1.8 0 0 0 .5.7 1.5 1.5 0 0 0 .6.5l.8.2a1.6 1.6 0 0 0 .9-.3 1.8 1.8 0 0 0 .8-.7v.7a2.3 2.3 0 0 1 -1.8.9zm1.7-2.3h-1.2v-.5h1.9v2.8h-.7z"/><path d="m47 54v4.4h-.7v-5.7h.6l3.5 4.5v-4.5h.7v5.7h-.7z"/><path d="m59.6 53.9c0-.1-.1-.1-.2-.2l-.4-.2h-.9a1.3 1.3 0 0 0 -1 .3.7.7 0 0 0 -.3.6.8.8 0 0 0 .2.5l.5.3.8.2 1 .3.7.5a2 2 0 0 1 .2.9 1.7 1.7 0 0 1 -.1.7l-.5.5-.6.2h-1.7l-.8-.2-.7-.5.4-.6.3.3.5.2.5.2h.7l.9-.2a.9.9 0 0 0 .3-.7.7.7 0 0 0 -.1-.5l-.6-.3-.9-.3-1-.3a1 1 0 0 1 -.5-.4 1 1 0 0 1 -.2-.7 1.6 1.6 0 0 1 .2-1 1.8 1.8 0 0 1 .7-.5 2.2 2.2 0 0 1 1.1-.2h.7l.6.2.6.3z"/><path d="m18.7 36.7-6.7-18.2h4.8l4.7 13.9 4.6-13.9h4.5l-6.8 18.2z"/><path d="m38.5 37a7.7 7.7 0 0 1 -3.4-.7 8.6 8.6 0 0 1 -2.6-2 11.1 11.1 0 0 1 -1.7-3 10.5 10.5 0 0 1 -.6-3.6 11.6 11.6 0 0 1 .7-3.7 11.1 11.1 0 0 1 1.7-3 9 9 0 0 1 2.7-2.1 9.5 9.5 0 0 1 3.5-.7 6.6 6.6 0 0 1 3.7 1 8.1 8.1 0 0 1 2.7 2.5v-3.2h4.1v17.4a8 8 0 0 1 -5 7.5 12.1 12.1 0 0 1 -5.2 1.1 12.9 12.9 0 0 1 -5.1-1 11.7 11.7 0 0 1 -3.5-2.8l2.5-2.5a7.9 7.9 0 0 0 6.1 2.7 6.2 6.2 0 0 0 2.7-.5 3.9 3.9 0 0 0 2-1.6 4.7 4.7 0 0 0 .7-2.8v-2.3a6 6 0 0 1 -2.5 2.5 8.5 8.5 0 0 1 -3.5.8zm1.5-3.7a3.3 3.3 0 0 0 1.5-.3 5.2 5.2 0 0 0 1.3-.6l1.1-1a3.1 3.1 0 0 0 .6-1.3v-4.3a4.5 4.5 0 0 0 -1.1-1.9 4.8 4.8 0 0 0 -1.7-1.2 4.5 4.5 0 0 0 -1.9-.5 4.6 4.6 0 0 0 -2 .5 4.4 4.4 0 0 0 -1.5 1.2 11.4 11.4 0 0 0 -1 1.9 6.6 6.6 0 0 0 -.3 2.1 5.2 5.2 0 0 0 .4 2.1 4.5 4.5 0 0 0 1.1 1.7 4.8 4.8 0 0 0 1.6 1.2 6.5 6.5 0 0 0 1.9.4z"/></g></svg>