<svg height="16" viewBox="0 0 16 16" width="16" xmlns="http://www.w3.org/2000/svg"><path d="m-9-9h34v34h-34z" fill="#121f26"/><g fill="#f2e9c8"><path d="m3.9 10.4-2.1-5.7h1.5l1.5 4.3 1.5-4.3h1.4l-2.2 5.7z"/><path d="m10.1 10.5-1-.2a2.7 2.7 0 0 1 -.8-.7c-.3-.2-.4-.6-.6-.9a4.1 4.1 0 0 1 -.1-1.1 2.3 2.3 0 0 1 .2-1.2 3.1 3.1 0 0 1 .5-1l.9-.6 1-.2a2.1 2.1 0 0 1 1.2.3 2 2 0 0 1 .8.8v-1h1.3v5.4a2.4 2.4 0 0 1 -.4 1.5 2.4 2.4 0 0 1 -1.1.9 4.3 4.3 0 0 1 -1.7.3 4.1 4.1 0 0 1 -1.6-.3 3.1 3.1 0 0 1 -1.1-.9l.8-.8a3.1 3.1 0 0 0 .9.7l1 .2h.9c.3-.2.5-.3.6-.5a1.5 1.5 0 0 0 .2-.9v-.8a1.6 1.6 0 0 1 -.7.7 2.7 2.7 0 0 1 -1.2.3zm.5-1.2h.5l.4-.2.3-.3a.5.5 0 0 0 .2-.4v-1.4a.9.9 0 0 0 -.3-.6l-.5-.4-.6-.2-.7.2c-.1.1-.3.2-.4.4a.5.5 0 0 0 -.3.5 2.5 2.5 0 0 0 -.2.7 1.9 1.9 0 0 0 .2.7l.3.5.5.4z"/></g></svg>